<?xml version="1.0" encoding="utf-8"?>
<!-- Generator: Adobe Illustrator 24.2.1, SVG Export Plug-In . SVG Version: 6.00 Build 0)  -->
<svg version="1.1" id="Layer_1" xmlns="http://www.w3.org/2000/svg" xmlns:xlink="http://www.w3.org/1999/xlink" x="0px" y="0px"
	 width="251.5px" height="107px" viewBox="0 0 251.5 107" style="enable-background:new 0 0 251.5 107;" xml:space="preserve">
<style type="text/css">
	.st0{fill:#FFFFFF;}
</style>
<g>
	<g>
		<path class="st0" d="M36.4,32.9l12.82-0.02l0.01,4.9l-6.48,0.01l0.03,12.73l6.48-0.01l0.01,4.83l-6.48,0.01l0.04,18.36l-6.34,0.01
			L36.4,32.9z"/>
		<path class="st0" d="M62.18,32.58l8.32-0.01c3.13,0,4.76,0.43,6.26,1.66c1.42,1.17,1.92,2.77,1.92,6.72l0,5.98
			c0,1.6-0.21,2.96-0.64,4.07c-0.5,1.17-1.28,1.85-2.99,2.66c0.92,0.37,1.21,0.55,1.71,0.86c1.21,0.8,1.92,2.34,1.92,4.38l0,11.29
			c0,1.79,0.07,2.35,0.57,3.52l-6.26,0.01c-0.5-1.11-0.64-2.1-0.64-4.44l0-10.49c0-2.41-0.57-2.9-3.27-2.96l-0.57,0l0,17.89
			l-6.33,0.01L62.18,32.58z M68.5,50.96c1.49,0,1.78-0.06,2.35-0.19c1.14-0.31,1.49-0.99,1.49-2.78l0-7.53
			c0-2.41-0.57-2.9-3.27-2.96l-0.57,0L68.5,50.96z"/>
		<path class="st0" d="M87.49,58.12v7.32c0,1.21,0,1.33,0.07,1.82c0.14,1.09,0.84,1.63,1.95,1.63c0.63,0,1.33-0.3,1.6-0.73
			c0.28-0.42,0.35-0.97,0.35-2.72V60.3c0-1.94-0.42-2.78-2.09-4.06l-4.12-3.27c-3.21-2.54-3.91-3.81-3.91-7.2V41.6
			c0-2.6,0-3.03,0.35-4.36c0.7-2.97,3.63-4.66,7.74-4.66c2.58,0,4.95,0.73,6.28,2.06c0.7,0.67,1.19,1.57,1.46,2.6
			c0.35,1.27,0.35,1.69,0.35,4.36v5.39h-6.07v-6.11c0-1.03,0-1.39-0.07-1.88c-0.14-1.03-0.77-1.63-1.88-1.63
			c-0.7,0-1.33,0.3-1.67,0.73c-0.28,0.42-0.35,0.97-0.35,2.78v3.81c0,2,0.35,2.6,2.58,4.36l4.05,3.21c2.86,2.24,3.56,3.63,3.56,7.14
			v5.27c0,2.66-0.07,3.09-0.42,4.36c-0.7,2.97-3.56,4.72-7.74,4.72c-2.65,0-5.02-0.79-6.35-2.06c-0.7-0.73-1.19-1.63-1.46-2.66
			c-0.35-1.21-0.35-1.69-0.35-4.36v-6.54H87.49z"/>
		<path class="st0" d="M52.02,32.88h6.27v40.73h-6.27V32.88z"/>
	</g>
	<polygon class="st0" points="114.94,37.58 114.92,32.69 109.72,32.7 109.6,24.85 103.48,24.85 103.6,32.71 98.81,32.71 98.82,37.6 
		103.75,37.59 103.84,73.44 109.96,73.43 109.87,37.59 	"/>
	<g>
		<path class="st0" d="M139.11,32.58l8.32-0.01c3.13,0,4.76,0.43,6.26,1.66c1.42,1.17,1.92,2.77,1.92,6.72l0,5.98
			c0,1.6-0.21,2.96-0.64,4.07c-0.5,1.17-1.28,1.85-2.99,2.66c0.92,0.37,1.21,0.55,1.71,0.86c1.21,0.8,1.92,2.34,1.92,4.38l0,11.29
			c0,1.79,0.07,2.35,0.57,3.52l-6.26,0.01c-0.5-1.11-0.64-2.1-0.64-4.44l0-10.49c0-2.41-0.57-2.9-3.27-2.96l-0.57,0l0,17.89
			l-6.33,0.01L139.11,32.58z M145.44,50.96c1.49,0,1.78-0.06,2.35-0.19c1.14-0.31,1.49-0.99,1.49-2.78l0-7.53
			c0-2.41-0.57-2.9-3.27-2.96l-0.57,0L145.44,50.96z"/>
		<path class="st0" d="M188.22,32.58l8.32-0.01c3.13,0,4.76,0.43,6.26,1.66c1.42,1.17,1.92,2.77,1.92,6.72l0,5.98
			c0,1.6-0.21,2.96-0.64,4.07c-0.5,1.17-1.28,1.85-2.99,2.66c0.92,0.37,1.21,0.55,1.71,0.86c1.21,0.8,1.92,2.34,1.92,4.38l0,11.29
			c0,1.79,0.07,2.35,0.57,3.52l-6.26,0.01c-0.5-1.11-0.64-2.1-0.64-4.44l0-10.49c0-2.41-0.57-2.9-3.27-2.96l-0.57,0l0,17.89
			l-6.33,0.01L188.22,32.58z M194.54,50.96c1.49,0,1.78-0.06,2.35-0.19c1.14-0.31,1.49-0.99,1.49-2.78l0-7.53
			c0-2.41-0.57-2.9-3.27-2.96l-0.57,0L194.54,50.96z"/>
		<path class="st0" d="M121.68,32.52l7.83-0.07c2.94-0.03,4.48,0.39,5.89,1.61c1.41,1.22,1.81,2.7,1.81,7.08l0.01,6.98
			c0,2.84-0.26,4.33-1,5.75c-0.33,0.74-1,1.43-1.81,1.87c-1.2,0.81-2.34,1.01-5.15,1.03l-1.61,0.01l0.02,16.86l-5.96,0.06
			L121.68,32.52z M128.19,51.85c2.54-0.02,3.08-0.58,3.07-2.99l-0.01-8.52c0-2.41-0.54-2.9-3.08-2.94l-0.54,0.01l0.01,14.45
			L128.19,51.85z"/>
		<path class="st0" d="M158.68,32.67h6.6v41.01h-6.6V32.67z"/>
		<path class="st0" d="M207.97,32.67h6.6v41.12h-6.6V32.67z"/>
		<path class="st0" d="M184.68,69.12c-0.7,3.05-3.58,4.75-7.86,4.75c-2.81,0-5.13-0.8-6.46-2.08c-0.7-0.73-1.26-1.65-1.48-2.68
			c-0.35-1.22-0.42-1.71-0.42-4.39l0-23.21c0-2.62,0.07-3.05,0.42-4.39c0.7-2.98,3.58-4.69,7.86-4.69c2.81,0,5.12,0.74,6.46,2.08
			c0.7,0.67,1.26,1.59,1.47,2.62c0.35,1.28,0.42,1.71,0.42,4.39l0,23.21C185.1,67.42,185.03,67.84,184.68,69.12z M174.85,67.35
			c0.14,1.1,0.84,1.64,1.9,1.65c0.7,0,1.4-0.3,1.69-0.73c0.28-0.43,0.35-0.91,0.35-2.74l0-24.74c0-1.04,0-1.46-0.07-1.89
			c-0.14-1.04-0.84-1.65-1.97-1.65c-0.63,0-1.33,0.3-1.62,0.73c-0.28,0.43-0.35,1.04-0.35,2.8l0,24.73
			C174.78,66.31,174.78,66.92,174.85,67.35z"/>
		<path class="st0" d="M238.78,32.66l2.98,13.62l2.84-13.62h6.1l-5.82,25.52v15.4h-6.1V57.94l-6.3-25.27H238.78z"/>
		<path class="st0" d="M221.04,37.59l-4.96,0l-0.01-4.92l16.24,0l0.01,4.93l-5.11,0l0.07,36.13l-6.17,0L221.04,37.59z"/>
	</g>
	<g>
		<g>
			<path class="st0" d="M54.01,90.61c-20.63,0-37.42-16.79-37.42-37.42c0-20.63,16.79-37.42,37.42-37.42
				c9.99,0,19.39,3.89,26.46,10.96c0.38,0.38,0.38,1,0,1.38c-0.38,0.38-1,0.38-1.38,0c-6.7-6.7-15.61-10.39-25.08-10.39
				c-19.56,0-35.47,15.91-35.47,35.47c0,19.56,15.91,35.47,35.47,35.47c9.84,0,19.32-4.14,26.01-11.35
				c0.37-0.39,0.98-0.42,1.38-0.05c0.39,0.37,0.42,0.98,0.05,1.38C74.39,86.24,64.39,90.61,54.01,90.61z"/>
			<path class="st0" d="M53.28,105.94c-29.03,0-52.64-23.62-52.64-52.64c0-29.03,23.62-52.64,52.64-52.64
				c18.41,0,35.73,9.82,45.2,25.64c0.28,0.46,0.13,1.06-0.34,1.34c-0.46,0.28-1.06,0.13-1.34-0.34C87.69,12.06,71.01,2.6,53.28,2.6
				c-27.95,0-50.7,22.74-50.7,50.7c0,27.95,22.74,50.7,50.7,50.7c18.37,0,35.34-9.97,44.3-26.03c0.26-0.47,0.85-0.64,1.32-0.38
				c0.47,0.26,0.64,0.85,0.38,1.32C89.97,95.58,72.35,105.94,53.28,105.94z"/>
		</g>
		<g>
			<path class="st0" d="M54.14,90.42c-20.58,0-37.33-16.75-37.33-37.33c0-20.58,16.75-37.33,37.33-37.33
				c9.97,0,19.35,3.88,26.4,10.93c0.38,0.38,0.38,0.99,0,1.37c-0.38,0.38-0.99,0.38-1.37,0C72.48,21.38,63.59,17.7,54.14,17.7
				c-19.51,0-35.39,15.87-35.39,35.39c0,19.51,15.87,35.39,35.39,35.39c9.81,0,19.27-4.13,25.95-11.33
				c0.36-0.39,0.98-0.42,1.37-0.05c0.39,0.36,0.42,0.98,0.05,1.37C74.47,86.07,64.49,90.42,54.14,90.42z"/>
			<path class="st0" d="M53.41,105.71C24.46,105.71,0.9,82.16,0.9,53.2c0-28.96,23.56-52.52,52.52-52.52
				c18.37,0,35.64,9.8,45.09,25.58c0.27,0.46,0.13,1.06-0.33,1.33c-0.46,0.28-1.06,0.13-1.33-0.33C87.74,12.06,71.1,2.63,53.41,2.63
				C25.53,2.63,2.84,25.31,2.84,53.2c0,27.89,22.69,50.57,50.57,50.57c18.32,0,35.26-9.95,44.19-25.97
				c0.26-0.47,0.85-0.64,1.32-0.38c0.47,0.26,0.64,0.85,0.38,1.32C90.02,95.38,72.44,105.71,53.41,105.71z"/>
		</g>
		<g>
			<path class="st0" d="M25.22,86.43c-1.71,1.7-4.15,1.56-5.81-0.11c-1.21-1.21-1.25-2.57-0.94-3.66l1.51,0.52
				c-0.22,0.68-0.08,1.53,0.48,2.1c1.01,1.01,2.51,0.98,3.55-0.06c1.05-1.04,1.09-2.54,0.09-3.55c-0.56-0.56-1.41-0.71-2.09-0.5
				l-0.52-1.5c1.08-0.29,2.45-0.26,3.66,0.96C26.81,82.29,26.93,84.74,25.22,86.43z"/>
			<path class="st0" d="M18.22,71.23l-2.86,1.64l1.84,3.2l2.86-1.64l0.83,1.44l-6.78,3.89l-0.83-1.44l2.66-1.53l-1.84-3.2
				l-2.66,1.53l-0.83-1.45l6.78-3.89L18.22,71.23z"/>
			<path class="st0" d="M12.96,67.15l-4.54,1.18L8,66.7l4.49-1.17c1.05-0.28,1.62-1.08,1.32-2.24c-0.3-1.17-1.19-1.58-2.24-1.31
				l-4.49,1.17L6.64,61.5l4.54-1.18c1.87-0.49,3.45,0.29,4.05,2.59C15.83,65.21,14.83,66.66,12.96,67.15z"/>
			<path class="st0" d="M13.81,51.43l-2.78,1.53l0,1.22l2.78,0l0,1.66l-7.82-0.01L6,52.18c0-1.63,1.07-2.64,2.52-2.63
				c1.37,0,2.12,0.88,2.32,1.73l2.98-1.77L13.81,51.43z M8.51,51.26c-0.64,0-1.04,0.5-1.04,1.16l0,1.76l2.11,0l0-1.76
				C9.57,51.76,9.17,51.26,8.51,51.26z"/>
			<path class="st0" d="M10.39,45.55c-2.34-0.6-3.47-2.76-2.88-5.04c0.42-1.66,1.57-2.39,2.65-2.68l0.33,1.56
				c-0.69,0.16-1.36,0.72-1.55,1.49c-0.35,1.38,0.45,2.65,1.88,3.02c1.43,0.37,2.74-0.36,3.09-1.75c0.2-0.77-0.12-1.58-0.65-2.05
				l1.02-1.21c0.81,0.77,1.48,1.97,1.06,3.63C14.75,44.79,12.71,46.14,10.39,45.55z"/>
			<path class="st0" d="M19.82,31.72l-2.88-1.61l-1.8,3.22l2.88,1.61l-0.81,1.45l-6.83-3.81l0.81-1.45l2.68,1.5l1.8-3.22L13,27.9
				l0.82-1.46l6.83,3.81L19.82,31.72z"/>
			<path class="st0" d="M26.25,18.52c-1.35-2-0.75-4.37,1.2-5.68c1.42-0.96,2.76-0.75,3.77-0.24l-0.79,1.38
				c-0.63-0.34-1.49-0.37-2.15,0.08c-1.19,0.8-1.43,2.28-0.61,3.5c0.83,1.22,2.29,1.55,3.47,0.75c0.66-0.45,0.96-1.26,0.88-1.96
				l1.57-0.23c0.09,1.12-0.21,2.46-1.63,3.41C30.01,20.85,27.59,20.51,26.25,18.52z"/>
			<path class="st0" d="M42.48,14.45l-0.91-1.08l-3.16,1.13l-0.02,1.41l-1.78,0.63l0.21-8.37l1.96-0.7l5.46,6.35L42.48,14.45z
				 M38.37,9.38l-0.02,3.58l2.3-0.82L38.37,9.38z"/>
			<path class="st0" d="M53.82,12.77l-0.36-5.62l-1.84,5.76l-0.73,0.05l-2.56-5.48l0.36,5.62l-1.66,0.11l-0.5-7.8l2.33-0.15
				l2.21,4.75l1.58-5l2.34-0.15l0.5,7.8L53.82,12.77z"/>
			<path class="st0" d="M59.17,13.11l1.59-7.65l3.58,0.75c1.66,0.35,2.34,1.66,2.06,3c-0.28,1.33-1.43,2.26-3.08,1.92l-1.95-0.41
				l-0.57,2.73L59.17,13.11z M64.73,8.86c0.13-0.64-0.28-1.14-0.92-1.27l-1.72-0.36l-0.43,2.05l1.72,0.36
				C64.03,9.77,64.6,9.49,64.73,8.86z"/>
			<path class="st0" d="M69.75,12.61l2.07-4.21l1.51,0.74l-2.05,4.17c-0.48,0.98-0.24,1.93,0.84,2.46c1.08,0.53,1.97,0.13,2.45-0.84
				l2.05-4.17l1.53,0.75l-2.07,4.21c-0.85,1.74-2.47,2.43-4.61,1.38C69.34,16.05,68.9,14.35,69.75,12.61z"/>
			<path class="st0" d="M78.07,19.47l1.54-0.4c0.05,0.79,0.38,1.72,1.2,2.42c0.71,0.6,1.3,0.57,1.6,0.22
				c0.88-1.04-3.16-3.23-1.25-5.47c0.84-0.99,2.4-1.08,3.8,0.11c0.95,0.81,1.49,1.76,1.61,2.81l-1.51,0.34
				c-0.1-0.86-0.57-1.61-1.18-2.13c-0.54-0.46-1.04-0.48-1.34-0.13c-0.8,0.94,3.16,3.22,1.26,5.44c-0.93,1.09-2.41,1.24-4.01-0.12
				C78.64,21.59,78.15,20.51,78.07,19.47z"/>
		</g>
		<g>
			<path class="st0" d="M35.3,92.92c0.85-2.26,3.13-3.14,5.33-2.3c1.6,0.61,2.2,1.82,2.37,2.94l-1.59,0.15
				c-0.08-0.71-0.56-1.43-1.31-1.71c-1.34-0.51-2.69,0.15-3.21,1.53c-0.52,1.38,0.06,2.76,1.39,3.27c0.75,0.28,1.58,0.06,2.11-0.42
				l1.09,1.15c-0.86,0.72-2.13,1.25-3.73,0.64C35.57,97.34,34.45,95.16,35.3,92.92z"/>
			<path class="st0" d="M51.36,100.9l0.33-3.28l-3.67-0.37l-0.33,3.27l-1.65-0.17l0.78-7.77l1.66,0.17l-0.31,3.05l3.67,0.37
				l0.31-3.05l1.67,0.17l-0.78,7.77L51.36,100.9z"/>
			<path class="st0" d="M63.2,100.13l-1.95-2.5l-1.2,0.19l0.44,2.74l-1.64,0.26l-1.24-7.72l3.61-0.58c1.61-0.26,2.77,0.64,3,2.07
				c0.22,1.35-0.53,2.23-1.33,2.56l2.22,2.66L63.2,100.13z M62.53,94.87c-0.1-0.64-0.66-0.95-1.31-0.85l-1.74,0.28l0.33,2.08
				l1.73-0.28C62.2,96,62.63,95.52,62.53,94.87z"/>
			<path class="st0" d="M70.03,98.28l-2.71-7.33l1.56-0.58l2.71,7.33L70.03,98.28z"/>
			<path class="st0" d="M75.55,94.84l0.11-1.59c0.77,0.21,1.75,0.19,2.68-0.36c0.79-0.48,0.95-1.05,0.72-1.44
				c-0.7-1.17-4.07,1.96-5.58-0.56c-0.67-1.12-0.26-2.62,1.32-3.57c1.07-0.64,2.14-0.85,3.17-0.63l-0.15,1.54
				c-0.84-0.18-1.71,0.03-2.39,0.44c-0.6,0.36-0.79,0.83-0.55,1.23c0.63,1.06,4.05-1.97,5.56,0.53c0.74,1.23,0.41,2.68-1.39,3.76
				C77.74,94.97,76.56,95.09,75.55,94.84z"/>
			<path class="st0" d="M86.94,88.06l-4.42-4.56l-1.64,1.59l-1.02-1.05l4.48-4.34l1.02,1.05l-1.63,1.58l4.42,4.56L86.94,88.06z"/>
		</g>
		<path class="st0" d="M23.13,22.77c0.02,0.8-0.62,1.47-1.42,1.48c-0.8,0.02-1.46-0.62-1.48-1.42c-0.02-0.8,0.62-1.46,1.42-1.48
			C22.45,21.33,23.11,21.96,23.13,22.77z"/>
		<path class="st0" d="M31.55,90.2c0.02,0.8-0.62,1.46-1.42,1.48c-0.8,0.01-1.47-0.62-1.48-1.42c-0.02-0.8,0.62-1.46,1.42-1.48
			C30.87,88.76,31.53,89.39,31.55,90.2z"/>
	</g>
</g>
</svg>
